<?xml version="1.0" standalone="no"?>
<!DOCTYPE svg PUBLIC "-//W3C//DTD SVG 20010904//EN"
 "http://www.w3.org/TR/2001/REC-SVG-20010904/DTD/svg10.dtd">
<svg version="1.0" xmlns="http://www.w3.org/2000/svg"
 width="357.000000pt" height="357.000000pt" viewBox="0 0 357.000000 357.000000"
 preserveAspectRatio="xMidYMid meet">

<g transform="translate(0.000000,357.000000) scale(0.100000,-0.100000)"
fill="#000000" stroke="none">
<path d="M0 1785 l0 -1785 1785 0 1785 0 0 1785 0 1785 -1785 0 -1785 0 0
-1785z m1328 1239 c23 -26 24 -31 20 -201 -2 -133 0 -173 10 -173 7 0 12 -13
12 -30 0 -27 -3 -30 -29 -30 -17 0 -36 8 -43 18 -9 11 -28 17 -56 18 -33 1
-50 7 -70 28 l-27 26 0 159 c0 145 2 161 20 181 28 31 54 40 100 35 28 -2 47
-12 63 -31z m-236 -184 l35 -210 -38 0 c-36 0 -38 2 -44 40 -6 37 -9 40 -40
40 -30 0 -33 -3 -39 -40 -6 -38 -8 -40 -41 -40 -31 0 -35 2 -30 23 2 12 16 94
30 182 37 237 29 215 84 215 l48 0 35 -210z m370 33 l3 -178 25 0 25 0 3 178
2 177 35 0 35 0 0 -184 c0 -181 -1 -185 -24 -213 -21 -24 -32 -28 -76 -28 -44
0 -55 4 -76 28 -23 28 -24 32 -24 213 l0 184 35 0 35 0 2 -177z m318 171 c0
-9 59 -366 65 -391 5 -21 2 -23 -35 -23 -36 0 -40 3 -40 24 0 44 -10 56 -46
56 -29 0 -34 -3 -34 -24 0 -43 -10 -56 -44 -56 l-33 0 33 203 c19 111 34 205
34 210 0 8 100 10 100 1z m261 -7 c33 -25 39 -55 39 -197 0 -194 -9 -209 -132
-210 l-78 0 0 210 0 210 78 0 c45 -1 84 -6 93 -13z m254 -12 c21 -20 25 -34
25 -85 0 -44 -5 -65 -17 -77 -17 -17 -17 -19 0 -35 13 -14 17 -35 17 -92 0
-41 3 -81 6 -90 5 -13 -2 -16 -35 -16 l-41 0 0 78 c0 81 -9 102 -42 102 -16 0
-18 -10 -18 -90 l0 -90 -35 0 -35 0 0 210 0 210 75 0 c67 0 79 -3 100 -25z
m135 -185 l0 -210 -35 0 -35 0 0 210 0 210 35 0 35 0 0 -210z m217 186 c26
-23 28 -29 28 -101 0 -72 -2 -78 -28 -101 -18 -15 -41 -24 -63 -24 l-34 0 0
-85 0 -85 -35 0 -35 0 0 210 0 210 69 0 c59 0 74 -4 98 -24z m-191 -736 c130
-44 298 -162 390 -272 32 -39 45 -48 72 -48 29 0 32 3 32 31 0 24 3 30 16 25
9 -3 27 -6 40 -6 14 0 36 -11 49 -25 25 -24 25 -27 25 -190 0 -163 0 -166 -25
-190 -13 -14 -32 -25 -42 -25 -10 0 -28 -3 -40 -6 -20 -6 -23 -3 -23 25 0 28
-3 31 -32 31 -28 0 -40 -9 -80 -59 -88 -110 -288 -240 -427 -276 -42 -11 -95
-15 -169 -13 l-107 3 -20 33 -20 33 -557 -4 -556 -5 -48 -36 -47 -36 -131 0
c-140 0 -295 14 -358 31 -21 5 -53 22 -70 38 -28 25 -31 32 -29 87 0 33 7 79
14 103 12 42 11 45 -14 72 -68 73 -65 303 5 368 23 22 24 25 11 62 -8 21 -17
65 -21 98 -6 57 -5 61 23 90 54 53 203 80 455 81 113 0 119 -1 165 -30 l47
-30 558 0 c307 0 558 4 558 9 0 4 12 21 26 36 l26 28 121 -6 c85 -4 141 -13
183 -27z m802 -332 c8 -8 12 -57 12 -156 l0 -144 45 -82 c49 -89 53 -112 31
-155 -35 -68 -123 -83 -175 -30 -43 43 -42 92 4 176 19 35 35 66 35 68 0 3
-22 5 -50 5 l-50 0 0 165 0 165 68 0 c40 0 73 -5 80 -12z m-2442 -1018 c-7
-81 -6 -90 9 -90 14 0 15 -3 5 -15 -7 -8 -17 -12 -23 -8 -5 3 -26 6 -46 7 -27
1 -39 7 -50 28 -14 25 -14 29 5 55 12 16 33 29 47 31 21 3 27 9 27 27 0 13 -5
27 -12 31 -8 5 -6 10 8 15 35 14 37 10 30 -81z m814 55 c0 -8 -7 -15 -15 -15
-8 0 -15 7 -15 15 0 8 7 15 15 15 8 0 15 -7 15 -15z m-1158 -7 c-7 -7 -12 -25
-12 -41 0 -27 2 -28 38 -25 32 3 37 7 40 31 2 15 -1 27 -7 27 -6 0 -11 5 -11
10 0 6 16 10 36 10 28 0 34 -3 27 -12 -6 -7 -13 -41 -17 -75 -6 -53 -4 -63 11
-72 15 -8 11 -10 -21 -11 -31 0 -37 3 -28 12 7 7 12 25 12 40 0 26 -3 28 -40
28 -37 0 -40 -2 -40 -28 0 -15 5 -33 12 -40 9 -9 3 -12 -27 -12 -27 0 -35 3
-26 9 10 6 12 28 9 85 l-3 76 29 0 c23 0 27 -3 18 -12z m941 -59 c10 -35 26
-72 35 -81 14 -17 12 -18 -29 -18 -33 1 -40 3 -27 10 26 16 11 52 -21 48 -32
-4 -43 -44 -14 -51 10 -3 -2 -5 -26 -6 -41 -1 -43 0 -29 17 9 9 19 28 23 42
18 59 46 111 57 108 7 -3 21 -33 31 -69z m827 46 c0 -21 5 -25 29 -25 23 0 28
-4 25 -18 -3 -9 -1 -28 4 -41 8 -24 9 -23 22 9 11 27 11 33 -1 41 -9 5 13 8
56 6 l70 -2 3 -47 c2 -35 7 -48 18 -48 8 0 13 -4 10 -9 -3 -5 -28 -9 -55 -9
-36 -1 -51 3 -55 15 -8 20 9 41 37 45 31 4 28 33 -3 32 -14 -1 -28 4 -32 10
-4 6 -18 -14 -32 -46 -14 -31 -29 -59 -35 -62 -5 -3 -17 18 -26 46 -9 29 -26
60 -36 70 -10 9 -19 21 -19 27 0 6 -11 11 -25 11 -20 0 -25 -5 -25 -25 0 -20
5 -25 25 -25 34 0 32 -18 -2 -22 -24 -2 -28 -8 -28 -33 0 -38 26 -44 55 -15
25 25 32 23 23 -8 -5 -20 -12 -22 -66 -22 -47 0 -58 3 -49 12 15 15 16 138 2
138 -5 0 -10 5 -10 10 0 6 27 10 60 10 57 0 60 -1 60 -25z m-1140 -14 c0 -5
10 -11 23 -14 21 -3 21 -4 -5 -15 -22 -9 -28 -18 -28 -43 0 -22 5 -32 20 -36
22 -6 26 -19 8 -26 -34 -11 -48 5 -48 54 0 26 -5 51 -11 54 -6 5 -4 12 8 21
21 16 33 18 33 5z m600 0 c0 -5 10 -11 23 -14 21 -3 21 -4 -5 -15 -22 -9 -28
-18 -28 -43 0 -22 5 -32 20 -36 22 -6 26 -19 8 -26 -34 -11 -48 5 -48 54 0 26
-5 51 -11 54 -6 5 -4 12 8 21 21 16 33 18 33 5z m200 -1 c0 -5 9 -10 20 -10
11 0 20 -4 20 -10 0 -5 -9 -10 -20 -10 -17 0 -20 -7 -20 -40 0 -35 3 -40 23
-40 21 -1 21 -1 3 -15 -32 -24 -53 -3 -58 57 -4 51 4 78 23 78 5 0 9 -4 9 -10z
m1100 0 c0 -5 9 -10 20 -10 11 0 20 -4 20 -10 0 -5 -9 -10 -20 -10 -17 0 -20
-7 -20 -40 0 -35 3 -40 23 -40 21 -1 21 -1 3 -15 -32 -24 -53 -3 -58 57 -4 51
4 78 23 78 5 0 9 -4 9 -10z m-1420 -10 c0 -5 -5 -10 -11 -10 -6 0 -8 -8 -4
-19 8 -25 -26 -61 -57 -61 -19 0 -20 -2 -8 -10 8 -5 25 -10 36 -10 12 0 27 -6
33 -14 15 -18 -14 -53 -50 -61 -33 -8 -66 20 -48 41 6 7 7 19 3 26 -12 18 -13
80 -3 100 6 11 25 18 52 21 23 2 45 4 50 5 4 1 7 -2 7 -8z m-945 -10 c-8 -12
5 -60 16 -60 16 0 23 52 8 61 -10 6 -4 9 18 9 l32 0 -40 -87 c-41 -90 -57
-109 -74 -92 -6 6 -1 15 13 25 28 20 28 49 -2 107 l-23 47 29 0 c16 0 27 -4
23 -10z m305 2 c-1 -18 -18 -32 -33 -26 -14 5 -17 -1 -17 -34 0 -23 5 -43 13
-45 6 -3 -1 -6 -18 -6 l-30 -1 0 59 0 59 43 0 c23 0 42 -3 42 -6z m88 -44 c2
-35 7 -48 18 -48 8 0 13 -4 9 -10 -3 -5 -29 -8 -58 -7 -46 2 -52 5 -55 25 -3
18 2 23 27 28 22 5 31 12 31 26 0 16 -5 19 -25 16 -14 -3 -25 -2 -25 2 0 14
15 21 45 18 28 -3 30 -6 33 -50z m210 40 c24 -24 13 -38 -29 -38 -36 0 -40 -2
-37 -22 2 -18 12 -24 38 -29 35 -6 35 -6 10 -16 -60 -25 -104 39 -64 95 17 24
62 30 82 10z m392 -42 c0 -34 5 -56 13 -59 6 -3 -1 -6 -18 -6 l-30 -1 0 60 c0
50 3 60 18 60 14 0 17 -9 17 -54z m198 2 c2 -35 7 -48 18 -48 8 0 13 -4 10 -9
-3 -5 -28 -9 -55 -9 -36 -1 -51 3 -55 15 -8 20 9 41 37 45 33 5 28 33 -5 31
-16 -1 -28 2 -28 7 0 12 21 19 50 17 22 -2 25 -7 28 -49z m220 25 c3 -21 -1
-23 -37 -23 -27 0 -41 -4 -41 -13 0 -22 22 -37 55 -37 l30 -1 -24 -13 c-31
-17 -58 -10 -78 21 -15 22 -15 27 1 59 15 32 20 35 54 32 30 -2 38 -7 40 -25z
m556 -6 c14 -38 -9 -78 -52 -91 -35 -10 -42 -29 -14 -45 13 -8 9 -10 -23 -10
-22 0 -34 3 -27 6 8 3 12 28 12 77 0 44 -5 77 -12 85 -11 10 -1 11 47 9 55 -3
60 -5 69 -31z m126 14 c25 -47 -5 -103 -55 -103 -50 0 -74 64 -38 104 22 25
79 24 93 -1z m110 -2 c0 -14 -6 -18 -22 -16 -18 2 -24 -4 -26 -26 -2 -16 2
-35 9 -43 9 -12 7 -14 -17 -14 -29 0 -29 1 -29 59 l0 59 43 0 c35 0 42 -3 42
-19z m88 -31 c2 -35 7 -48 18 -48 8 0 13 -4 10 -9 -3 -5 -28 -9 -55 -9 -36 -1
-51 3 -55 15 -8 20 9 41 37 45 33 5 28 33 -5 31 -16 -1 -28 2 -28 7 0 12 21
19 50 17 22 -2 25 -7 28 -49z m220 25 c3 -21 -1 -23 -37 -23 -27 0 -41 -4 -41
-13 0 -22 22 -37 55 -37 l30 -1 -24 -13 c-31 -17 -58 -10 -78 21 -15 22 -15
27 1 59 15 32 20 35 54 32 30 -2 38 -7 40 -25z"/>
<path d="M1225 2978 c-3 -8 -4 -75 -3 -149 l3 -134 25 0 25 0 0 145 c0 143 0
145 -23 148 -12 2 -24 -3 -27 -10z"/>
<path d="M996 2880 c-4 -36 -10 -75 -13 -87 -4 -20 -1 -23 22 -23 26 0 26 0
20 54 -4 29 -10 68 -14 87 -7 31 -8 28 -15 -31z"/>
<path d="M1715 2866 c-4 -38 -9 -75 -12 -83 -4 -9 4 -13 22 -13 l27 0 -7 63
c-12 100 -21 111 -30 33z"/>
<path d="M1950 2840 c0 -138 1 -150 18 -150 36 0 42 20 42 150 0 130 -6 150
-42 150 -17 0 -18 -12 -18 -150z"/>
<path d="M2190 2930 c0 -51 3 -60 18 -60 28 0 42 20 42 60 0 40 -14 60 -42 60
-15 0 -18 -9 -18 -60z"/>
<path d="M2550 2924 c0 -62 1 -65 23 -62 47 7 45 128 -3 128 -18 0 -20 -6 -20
-66z"/>
<path d="M1144 2183 c-100 -3 -124 -7 -137 -21 -78 -89 -83 -619 -6 -717 l20
-25 510 0 c280 0 509 1 509 3 0 1 -7 36 -16 77 -29 142 -18 607 17 671 9 18
-3 19 -383 17 -216 -1 -448 -4 -514 -5z m500 -89 c38 -37 9 -114 -43 -114 -28
0 -61 38 -61 70 0 36 23 60 60 60 16 0 36 -7 44 -16z m116 -19 c0 -15 6 -25
15 -25 18 0 56 -72 47 -87 -11 -16 -161 -93 -182 -93 -11 0 -31 5 -46 12 -24
11 -29 10 -51 -17 -13 -17 -36 -47 -50 -68 l-26 -37 17 -63 17 -63 -41 -76
c-45 -84 -62 -103 -85 -94 -21 8 -18 42 10 111 25 60 30 95 17 128 -6 14 -12
10 -32 -23 -14 -22 -32 -43 -42 -46 -9 -2 -57 16 -107 41 -70 34 -91 50 -91
65 0 33 27 34 101 5 39 -15 71 -26 73 -24 15 20 107 181 105 183 -2 2 -34 -1
-71 -6 -78 -12 -98 -7 -98 22 0 26 19 33 161 61 l117 22 49 -31 c28 -18 63
-32 79 -32 34 0 102 44 84 55 -16 10 -2 25 18 18 10 -4 7 2 -8 15 -14 11 -27
16 -29 11 -2 -6 -10 -1 -18 11 -8 12 -12 24 -9 27 3 4 6 1 6 -5 0 -7 7 -12 16
-12 8 0 13 4 10 9 -4 5 3 7 14 4 16 -4 19 -2 14 11 -3 9 -1 16 5 16 6 0 11
-11 11 -25z"/>
<path d="M3175 1520 c-24 -54 -12 -63 14 -11 23 45 25 51 13 51 -5 0 -17 -18
-27 -40z"/>
<path d="M734 904 c-4 -17 -1 -31 9 -41 24 -24 47 -9 47 32 0 31 -3 35 -25 35
-18 0 -26 -7 -31 -26z"/>
<path d="M1367 946 c-11 -29 -8 -46 8 -46 16 0 18 14 6 44 -7 18 -8 18 -14 2z"/>
<path d="M2397 873 c-12 -11 -8 -23 8 -23 8 0 15 7 15 15 0 16 -12 20 -23 8z"/>
<path d="M1494 925 c-9 -21 3 -45 21 -45 21 0 30 27 15 45 -16 19 -29 19 -36
0z"/>
<path d="M1495 810 c-4 -7 -3 -16 3 -22 13 -13 54 0 49 15 -5 16 -43 21 -52 7z"/>
<path d="M977 873 c-12 -11 -8 -23 8 -23 8 0 15 7 15 15 0 16 -12 20 -23 8z"/>
<path d="M1180 925 c-11 -13 -8 -15 15 -15 23 0 26 2 15 15 -7 8 -14 15 -15
15 -1 0 -8 -7 -15 -15z"/>
<path d="M1777 873 c-12 -11 -8 -23 8 -23 8 0 15 7 15 15 0 16 -12 20 -23 8z"/>
<path d="M1980 925 c-11 -13 -9 -15 15 -15 16 0 25 5 23 12 -7 19 -24 20 -38
3z"/>
<path d="M2525 894 c-7 -40 5 -60 30 -51 34 14 31 87 -4 87 -14 0 -21 -10 -26
-36z"/>
<path d="M2662 928 c-17 -17 -15 -63 3 -78 35 -29 62 41 29 74 -19 19 -17 19
-32 4z"/>
<path d="M2877 873 c-12 -11 -8 -23 8 -23 8 0 15 7 15 15 0 16 -12 20 -23 8z"/>
<path d="M3080 925 c-11 -13 -9 -15 15 -15 16 0 25 5 23 12 -7 19 -24 20 -38
3z"/>
</g>
</svg>
